<svg id="Layer_1" data-name="Layer 1" xmlns="http://www.w3.org/2000/svg" viewBox="0 0 71 71"><defs><style>.cls-1,.cls-2,.cls-3{fill:none;stroke-miterlimit:10;}.cls-1,.cls-2{stroke:#00122c;}.cls-2{stroke-linecap:round;}.cls-3{stroke:#00b48f;}</style></defs><title>cloud</title><path id="Vector" class="cls-1" d="M63.41,27.84a2.88,2.88,0,0,0-1,2.09c-.07,1.43-.22,3.21-.22,3.21s-.53.06-1.92-1.61-2.5-4-7.2-2.3c.06,0,2.84.79,2.5,2.41,0,0-1.17,3.36-2.67,3.57s-5-3.27-5-3.27,1.24,6,3.67,7.44c1,.47,2.2-.15,2.4.25,1,1.75-4.17,5.24-4.45,7.48s.07,2.39-.64,5.13-4.74,6.88-6.9,6.88-3.87-3.36-4.1-4.58.55-2.24.62-3.54-1.63-2.54-1.82-3.7.71-2.6-.6-3.8-2.24-.75-3.67-.39c-3.21.47-6.63-1.51-8.23-3.52s1.24-8.4,3.14-10.19,5.49-1.56,6.48-1.54c2.07,0,5.19,2,6.26,1.82s1.49-.43,2.18-.28,4.12.81,4.1-1.54c-.15-3.42-8.65-3.16-8.65-3.16s-6.95,2-8.19.49,5.39-4,6.35-5.49,0-2.35.64-3.38,6.41-.47,7.37-2c.81-1.17,0-2-.28-2.67s.79-2.6.79-2.6" transform="translate(-0.5 -0.5)"/><path id="Vector_2" data-name="Vector 2" class="cls-1" d="M21.94,13.1a6.09,6.09,0,0,1-.36,4.12c-1,1.67-4.15,1.79-5.77,2.86a35.18,35.18,0,0,0-4.34,4" transform="translate(-0.5 -0.5)"/><path id="Vector_3" data-name="Vector 3" class="cls-1" d="M9,31.62s1.86.32,1.35,1.71A10.32,10.32,0,0,0,11,40.1c1.12,2,3.4,1.2,4.49,4s-.28,4.23-.43,5.7a19.41,19.41,0,0,0,.07,3.42" transform="translate(-0.5 -0.5)"/><path id="Vector_4" data-name="Vector 4" class="cls-1" d="M36,67A31,31,0,1,0,5,36,31,31,0,0,0,36,67Z" transform="translate(-0.5 -0.5)"/><path id="Vector_5" data-name="Vector 5" class="cls-2" d="M48,3.11A35,35,0,0,0,6.93,16.5m58.79,38a35.05,35.05,0,0,0,0-37,35.2,35.2,0,0,0-4.73-6M57,64A35,35,0,0,1,1,36a35.27,35.27,0,0,1,1-8.34" transform="translate(-0.5 -0.5)"/><path id="Vector_6" data-name="Vector 6" class="cls-3" d="M41.51,9A25,25,0,0,1,39,10.68c-.92.49-4.1.07-5.83,1.24s-4.85,3.38-6.47,2.29,2.35-3.63,4.59-4.13,2-1.92,2-1.92" transform="translate(-0.5 -0.5)"/><path id="Vector_7" data-name="Vector 7" class="cls-3" d="M28,62.66A13.78,13.78,0,0,0,31.34,62c1.63-.55,4.64-.15,6.13.32a9.56,9.56,0,0,1,2.63,1.33" transform="translate(-0.5 -0.5)"/></svg>