<svg id="Layer_1" data-name="Layer 1" xmlns="http://www.w3.org/2000/svg" viewBox="0 0 65.83 70.04"><defs><style>.cls-1,.cls-2,.cls-3{fill:none;stroke-linecap:round;}.cls-1,.cls-2{stroke:#00122c;}.cls-2,.cls-3{stroke-miterlimit:10;}.cls-3{stroke:#00b48f;}</style></defs><title>device</title><g id="safe"><path id="Vector" class="cls-1" d="M3.67,36V21.1a4,4,0,0,1,2.09-3.51L20,9.86,34.35,1.91a3.4,3.4,0,0,1,3.3,0L48,7.65m8,4.43,10.38,5.51a4,4,0,0,1,2.12,3.54V50.9a4,4,0,0,1-2.09,3.52L37.63,70.11a3.43,3.43,0,0,1-3.26,0L5.74,54.42a4,4,0,0,1-2.07-3.51V41.5" transform="translate(-3.17 -0.99)"/><path id="Vector_2" data-name="Vector 2" class="cls-1" d="M53.5,19S43.86,13.5,36,13.5,18.5,19,18.5,19V38.5c0,9.76,9.8,18.24,17.5,23,7.91-4.66,17.5-13.13,17.5-23v-16s-9.64-6-17.5-6M25.35,19A36.64,36.64,0,0,1,32,16.91" transform="translate(-3.17 -0.99)"/><path id="Vector_3" data-name="Vector 3" class="cls-2" d="M28,35.79l3.2,3M48,29,34.56,42l-.71-.68" transform="translate(-3.17 -0.99)"/><path id="Vector_4" data-name="Vector 4" class="cls-3" d="M24,35.79,30.56,42,44,29" transform="translate(-3.17 -0.99)"/></g></svg>