<?xml version="1.0" encoding="UTF-8" standalone="no"?>
<!DOCTYPE svg PUBLIC "-//W3C//DTD SVG 1.1//EN" "http://www.w3.org/Graphics/SVG/1.1/DTD/svg11.dtd">
<svg width="100%" height="100%" viewBox="0 0 110 46" version="1.1" xmlns="http://www.w3.org/2000/svg" xmlns:xlink="http://www.w3.org/1999/xlink" xml:space="preserve" xmlns:serif="http://www.serif.com/" style="fill-rule:evenodd;clip-rule:evenodd;stroke-linejoin:round;stroke-miterlimit:2;">
    <g transform="matrix(0.216093,0,0,0.216093,15.9322,18.0711)">
        <path d="M36.144,13.696C32.443,11.641 28.741,9.582 25.04,7.527C23.826,6.853 22.611,6.179 21.397,5.5C20.956,5.255 20.565,5.024 20.016,5.227C19.781,5.316 19.561,5.462 19.346,5.585C16.183,7.343 13.025,9.101 9.862,10.854C7.042,12.424 4.173,13.927 1.392,15.562C1.343,15.591 1.294,15.619 1.24,15.647C0.789,15.897 0.706,16.331 0.838,16.694C0.882,16.934 1.029,17.165 1.323,17.325C4.275,18.946 7.228,20.568 10.18,22.184C14.866,24.753 19.551,27.326 24.237,29.895C25.314,30.488 26.396,31.078 27.473,31.671C28.614,32.298 29.642,30.606 28.501,29.979C25.549,28.358 22.597,26.737 19.644,25.12C14.959,22.552 10.273,19.978 5.588,17.41C4.966,17.066 4.339,16.727 3.717,16.382C8.672,13.63 13.627,10.878 18.577,8.125C19.199,7.776 19.825,7.432 20.447,7.084C25.769,10.039 31.086,12.999 36.408,15.954C36.967,16.265 37.52,16.571 38.078,16.882C38.152,16.92 38.22,16.962 38.294,17.005L38.294,19.111C38.294,20.29 40.193,20.29 40.193,19.111C40.193,18.315 40.218,17.518 40.193,16.727C40.193,15.096 40.237,13.46 40.193,11.834C40.164,10.76 38.94,10.369 38.103,9.902C34.372,7.828 23.742,1.923 22.166,1.046C21.407,0.622 20.668,0.009 19.772,0.476C16.687,2.093 13.676,3.865 10.635,5.557C7.561,7.263 4.442,8.908 1.411,10.684C1.357,10.717 1.303,10.746 1.25,10.774C0.192,11.363 1.147,12.942 2.209,12.353C7.668,9.318 13.128,6.287 18.587,3.252C19.209,2.903 19.835,2.559 20.457,2.21C25.779,5.165 31.096,8.125 36.418,11.08C36.977,11.391 37.53,11.698 38.088,12.009C38.161,12.046 38.23,12.089 38.303,12.131L38.303,14.903C37.574,14.488 36.859,14.092 36.144,13.696ZM38.533,12.249C38.764,12.367 38.646,12.386 38.504,12.235C38.514,12.24 38.524,12.244 38.533,12.249Z" style="fill:white;fill-rule:nonzero;"/>
        <path d="M38.871,33.27C33.412,36.305 27.953,39.336 22.493,42.371C21.872,42.72 21.245,43.064 20.623,43.412C15.301,40.457 9.984,37.498 4.662,34.543C4.104,34.231 3.55,33.925 2.992,33.614C2.919,33.576 2.85,33.534 2.777,33.492L2.777,30.683C3.521,31.097 4.265,31.512 5.009,31.922C8.711,33.982 12.412,36.037 16.119,38.096C17.308,38.756 18.498,39.42 19.688,40.08C20.163,40.344 20.584,40.556 21.162,40.297C21.362,40.208 21.548,40.08 21.739,39.977C24.892,38.223 28.05,36.47 31.203,34.717C34.024,33.148 36.893,31.644 39.674,30.009C39.723,29.98 39.772,29.952 39.826,29.924C40.281,29.669 40.364,29.231 40.222,28.863C40.178,28.628 40.026,28.401 39.742,28.246C36.829,26.629 33.921,25.008 31.008,23.392C26.391,20.828 21.774,18.259 17.157,15.695C16.094,15.106 15.037,14.517 13.974,13.928C12.838,13.296 11.81,14.988 12.946,15.62C15.859,17.236 18.767,18.858 21.681,20.474C26.298,23.038 30.915,25.607 35.532,28.171C36.139,28.51 36.746,28.845 37.353,29.184C32.398,31.936 27.438,34.693 22.484,37.446C21.862,37.795 21.235,38.139 20.613,38.487C15.291,35.532 9.974,32.572 4.652,29.618C4.094,29.306 3.541,29 2.982,28.689C2.909,28.651 2.84,28.609 2.767,28.567L2.767,26.582C2.767,25.404 0.867,25.404 0.867,26.582C0.867,27.355 0.833,28.133 0.867,28.906C0.867,30.527 0.823,32.158 0.867,33.779C0.897,34.854 2.121,35.245 2.958,35.711C6.694,37.785 10.424,39.859 14.155,41.937C15.737,42.814 17.313,43.691 18.895,44.572C19.654,44.996 20.393,45.609 21.289,45.142C24.373,43.526 27.385,41.754 30.425,40.062C33.5,38.355 36.619,36.711 39.649,34.934C39.703,34.901 39.757,34.873 39.811,34.844C40.888,34.265 39.933,32.681 38.871,33.27ZM2.561,33.379C2.552,33.374 2.542,33.369 2.532,33.364C2.307,33.247 2.424,33.228 2.561,33.379Z" style="fill:white;fill-rule:nonzero;"/>
    </g>
    <g transform="matrix(0.530713,0,0,0.530713,0.843858,11.0095)">
        <path d="M53.809,19.594L58.225,19.594C59.101,19.594 59.811,20.277 59.811,21.121C59.811,21.465 60.086,21.734 60.433,21.734C60.786,21.734 61.07,21.46 61.07,21.121C61.07,19.613 59.792,18.383 58.225,18.383L53.809,18.383C52.438,18.383 51.238,19.618 51.238,21.027C51.238,22.455 52.443,23.709 53.809,23.709L58.225,23.709C59.067,23.709 59.811,24.472 59.811,25.344C59.811,26.155 59.106,27.14 58.225,27.14L54.083,27.14C53.216,27.14 52.511,26.461 52.511,25.627L52.511,25.094C52.511,24.755 52.227,24.481 51.875,24.481C51.522,24.481 51.238,24.755 51.238,25.094L51.238,25.627C51.238,27.135 52.516,28.365 54.083,28.365L58.225,28.365C59.85,28.365 61.07,26.772 61.07,25.349C61.07,23.808 59.767,22.502 58.225,22.502L53.809,22.502C53.074,22.502 52.506,21.71 52.506,21.032C52.506,20.362 53.074,19.594 53.809,19.594Z" style="fill:white;fill-rule:nonzero;"/>
        <path d="M70.991,18.581L67.01,23.115L63.01,18.567C62.887,18.449 62.736,18.383 62.574,18.378C62.403,18.383 62.241,18.435 62.114,18.553C61.987,18.675 61.918,18.831 61.918,18.991C61.918,19.147 61.982,19.293 62.084,19.387L66.129,24.006C66.192,24.076 66.31,24.222 66.378,24.312L66.378,27.752C66.378,28.087 66.657,28.351 67.015,28.351C67.362,28.351 67.637,28.087 67.637,27.752L67.637,24.312C67.71,24.218 67.833,24.067 67.891,23.996L71.94,19.392C72.18,19.151 72.166,18.802 71.906,18.548C71.651,18.308 71.265,18.317 70.991,18.581Z" style="fill:white;fill-rule:nonzero;"/>
        <path d="M75.802,19.593L80.228,19.593C81.094,19.593 81.799,20.271 81.799,21.105C81.799,21.445 82.083,21.718 82.436,21.718C82.788,21.718 83.072,21.445 83.072,21.105C83.072,19.597 81.795,18.367 80.228,18.367L75.802,18.367C74.235,18.367 72.957,19.593 72.957,21.105L72.957,25.611C72.957,27.119 74.235,28.349 75.802,28.349L80.228,28.349C81.795,28.349 83.072,27.119 83.072,25.611L83.072,23.311C83.072,22.972 82.788,22.698 82.436,22.698L77.647,22.698C77.3,22.698 77.026,22.967 77.026,23.311C77.026,23.651 77.295,23.91 77.647,23.91L81.799,23.91L81.799,25.611C81.799,26.455 81.094,27.138 80.228,27.138L75.802,27.138C74.93,27.138 74.215,26.455 74.215,25.611L74.215,21.105C74.215,20.271 74.925,19.593 75.802,19.593Z" style="fill:white;fill-rule:nonzero;"/>
        <path d="M94.393,18.406C94.04,18.406 93.756,18.68 93.756,19.019L93.756,27.036L86.402,18.793C86.059,18.449 85.545,18.336 85.09,18.515C84.639,18.694 84.356,19.099 84.356,19.58L84.356,27.776C84.356,28.115 84.639,28.388 84.992,28.388C85.34,28.388 85.614,28.12 85.614,27.776L85.614,19.782L92.978,28.021C93.203,28.261 93.511,28.388 93.829,28.388C93.981,28.388 94.133,28.36 94.28,28.304C94.73,28.125 95.014,27.719 95.014,27.238L95.014,19.019C95.014,18.675 94.74,18.406 94.393,18.406Z" style="fill:white;fill-rule:nonzero;"/>
        <path d="M97.341,18.43C96.993,18.43 96.719,18.698 96.719,19.042L96.719,27.799C96.719,28.143 96.993,28.412 97.341,28.412C97.693,28.412 97.977,28.139 97.977,27.799L97.977,19.042C97.972,18.708 97.688,18.43 97.341,18.43Z" style="fill:white;fill-rule:nonzero;"/>
        <path d="M106.936,18.395L102.505,18.395C100.938,18.395 99.66,19.625 99.66,21.133L99.66,25.638C99.66,27.147 100.938,28.377 102.505,28.377L106.936,28.377C108.503,28.377 109.78,27.151 109.78,25.638L109.78,21.133C109.78,19.62 108.503,18.395 106.936,18.395ZM108.522,21.128L108.522,25.634C108.522,26.473 107.812,27.161 106.936,27.161L102.505,27.161C101.623,27.161 100.933,26.491 100.933,25.634L100.933,21.128C100.933,20.27 101.623,19.601 102.505,19.601L106.936,19.601C107.812,19.606 108.522,20.289 108.522,21.128Z" style="fill:white;fill-rule:nonzero;"/>
    </g>
    <g transform="matrix(1,0,0,1,61.4002,33.5056)">
        <text x="-1.357px" y="-7.546px" style="font-family:'AvenirNext-Bold', 'Avenir Next', sans-serif;font-weight:700;font-size:8px;fill:rgb(0,180,143);">builder</text>
    </g>
</svg>
