<svg id="Layer_1" data-name="Layer 1" xmlns="http://www.w3.org/2000/svg" xmlns:xlink="http://www.w3.org/1999/xlink" viewBox="0 0 71 65"><defs><style>.cls-1{fill:#fff;}.cls-2{mask:url(#mask);}.cls-3,.cls-4,.cls-5,.cls-6,.cls-7{fill:none;}.cls-3,.cls-4,.cls-5{stroke:#00122c;}.cls-3,.cls-4,.cls-5,.cls-6{stroke-linecap:round;}.cls-3{stroke-width:2px;}.cls-5{stroke-linejoin:round;}.cls-6,.cls-7{stroke:#00b48f;}</style><mask id="mask" x="0" y="9" width="62" height="42" maskUnits="userSpaceOnUse"><g transform="translate(0 -2)"><g id="path-1-inside-1"><path class="cls-1" d="M59,12H3a2,2,0,0,0-2,2V50a2,2,0,0,0,2,2H59a2,2,0,0,0,2-2V14A2,2,0,0,0,59,12Z"/></g></g></mask></defs><title>payment</title><g id="card-updater"><g id="Rectangle"><g class="cls-2"><path class="cls-3" d="M59,12H3a2,2,0,0,0-2,2V50a2,2,0,0,0,2,2H59a2,2,0,0,0,2-2V14A2,2,0,0,0,59,12Z" transform="translate(0 -2)"/></g></g><path id="Rectangle_2" data-name="Rectangle 2" class="cls-4" d="M13.5,55v3.5a2,2,0,0,0,2,2h53a2,2,0,0,0,2-2v-36a2,2,0,0,0-2-2H65" transform="translate(0 -2)"/><path id="Vector_4" data-name="Vector 4" class="cls-5" d="M13.5,19.5h-5a2,2,0,0,0-2,2v2a2,2,0,0,0,2,2h5a2,2,0,0,0,2-2v-2A2,2,0,0,0,13.5,19.5Z" transform="translate(0 -2)"/><path id="Vector_4.1" data-name="Vector 4.1" class="cls-4" d="M6.5,39.5h8m5.5,0h8m6,0h8m5.5,0h8" transform="translate(0 -2)"/><path id="Vector_4.2" data-name="Vector 4.2" class="cls-4" d="M6.5,45.5H18" transform="translate(0 -2)"/><path id="Vector_4.3" data-name="Vector 4.3" class="cls-4" d="M22,45.5h6.5" transform="translate(0 -2)"/><path id="Vector_4.5" data-name="Vector 4.5" class="cls-4" d="M65,27.5h5m-5,6h5m-5-3h5" transform="translate(0 -2)"/><path id="Vector_4.4" data-name="Vector 4.4" class="cls-6" d="M45,20.5H56" transform="translate(0 -2)"/><path id="Vector_7" data-name="Vector 7" class="cls-7" d="M1.5,58l3-3,3,3" transform="translate(0 -2)"/><path id="Rectangle_6" data-name="Rectangle 6" class="cls-7" d="M67.5,14V6.5a4,4,0,0,0-4-4h-9" transform="translate(0 -2)"/><path id="Rectangle_5" data-name="Rectangle 5" class="cls-7" d="M4.5,55.5v7a4,4,0,0,0,4,4h9" transform="translate(0 -2)"/><path id="Vector_7_2" data-name="Vector 7_2" class="cls-7" d="M70.5,11.5l-3,3-3-3" transform="translate(0 -2)"/></g></svg>